<?xml version="1.0" standalone="no"?>
<!DOCTYPE svg PUBLIC "-//W3C//DTD SVG 20010904//EN"
 "http://www.w3.org/TR/2001/REC-SVG-20010904/DTD/svg10.dtd">
<svg version="1.0" xmlns="http://www.w3.org/2000/svg"
 width="1024.000000pt" height="1024.000000pt" viewBox="0 0 1024.000000 1024.000000"
 preserveAspectRatio="xMidYMid meet">

<g transform="translate(0.000000,1024.000000) scale(0.100000,-0.100000)"
fill="#000000" stroke="none">
<path d="M3763 9171 c-24 -12 -55 -37 -72 -62 -66 -90 -61 226 -61 -3837 0
-2775 3 -3704 12 -3733 15 -51 70 -114 122 -141 l41 -22 2138 0 c1891 -1 2138
-3 2141 -16 2 -8 12 -59 22 -113 11 -63 21 -94 27 -88 6 6 6 37 -2 86 -6 42
-11 91 -11 110 0 50 25 45 38 -7 9 -34 102 -588 102 -604 0 -12 -31 -2 -40 14
-11 16 -11 16 -6 0 3 -10 0 -18 -7 -18 -7 -1 6 -7 28 -15 55 -20 722 -22 747
-2 12 9 24 70 48 232 29 207 71 410 86 424 4 3 4 -2 1 -11 -8 -22 6 -22 86 -4
63 16 130 51 164 88 50 53 55 84 55 352 1 138 -2 314 -6 391 -7 122 -5 151 13
225 27 112 30 218 8 250 -14 20 -16 71 -17 459 l0 437 29 11 c16 6 35 21 41
34 12 22 12 22 -19 -4 -18 -15 -36 -27 -39 -27 -4 0 -7 1225 -7 2723 l0 2722
-28 47 c-33 56 -77 92 -132 107 -28 8 -821 11 -2750 11 -2642 0 -2711 -1
-2752 -19z m5486 -22 c28 -6 54 -16 58 -22 4 -7 0 -8 -12 -3 -27 10 -5434 7
-5479 -3 -45 -11 -102 -62 -122 -108 -10 -23 -14 -79 -15 -185 0 -84 -4 -162
-9 -173 -5 -12 -9 50 -9 160 0 155 2 186 18 221 23 50 53 81 106 105 39 18
130 19 2727 19 1889 0 2702 -3 2737 -11z m-4754 -210 c43 -42 42 -100 -3 -140
-46 -42 -93 -40 -138 5 -56 56 -43 122 31 161 38 20 72 12 110 -26z m-387 -5
c31 -36 29 -86 -5 -123 -16 -17 -35 -31 -43 -32 -64 -7 -110 30 -110 88 0 92
99 134 158 67z m753 7 c48 -49 35 -126 -26 -156 -42 -19 -65 -19 -95 2 -39 27
-49 45 -50 86 0 55 43 97 100 97 33 0 48 -6 71 -29z m4289 -58 c0 -5 -212 -8
-470 -8 -259 -1 -470 3 -470 7 0 4 212 8 470 8 259 0 470 -3 470 -7z m245
-485 c4 -117 5 -1455 2 -2973 l-4 -2760 -86 -7 c-48 -3 -117 -16 -153 -28
-162 -54 -362 -244 -415 -394 -26 -76 -39 -205 -28 -284 9 -64 9 -67 -24 -121
-19 -31 -45 -75 -57 -99 -21 -36 -50 -57 -50 -34 0 4 -1 120 -3 257 -2 240 -1
253 22 320 31 92 118 263 178 350 47 67 49 69 95 71 79 5 144 47 180 118 23
46 28 127 9 150 -23 27 -77 36 -134 21 -93 -24 -145 -110 -134 -222 5 -51 4
-54 -54 -135 -50 -70 -101 -163 -158 -288 l-11 -25 4 25 c3 14 10 113 16 220
6 107 15 233 20 280 6 47 13 115 17 152 5 57 9 69 27 74 34 10 85 53 102 86
22 42 20 118 -5 167 -25 47 -46 61 -97 61 -109 0 -179 -142 -124 -250 11 -21
29 -45 40 -53 20 -14 20 -16 5 -183 -9 -93 -19 -274 -22 -403 l-6 -234 -27 74
c-41 115 -97 223 -187 358 -67 99 -81 127 -73 141 18 34 12 120 -11 157 -26
42 -85 73 -139 73 -54 0 -79 -14 -96 -55 -20 -49 -18 -79 11 -134 34 -68 76
-96 145 -97 l55 -2 57 -78 c70 -96 175 -299 216 -414 29 -83 30 -93 37 -338 5
-145 4 -252 -1 -252 -5 1 -39 47 -75 103 -65 100 -67 104 -72 183 -19 263
-192 414 -475 414 -137 0 -147 -17 -105 -170 33 -122 139 -262 236 -311 67
-35 156 -52 239 -46 l77 5 61 -88 c33 -49 60 -91 60 -94 0 -3 -102 -6 -227 -6
-127 0 -235 -5 -243 -10 -12 -8 -14 -32 -12 -140 l4 -130 -2089 2 -2088 3 -43
23 c-48 26 -97 88 -112 142 -7 25 -9 1219 -8 3529 3 3091 5 3493 18 3501 9 6
1085 10 2861 10 l2847 0 7 -212z m-765 -5055 c0 -15 -74 -112 -81 -107 -30 18
22 114 62 114 10 0 19 -3 19 -7z m-550 -316 c0 -17 -34 -97 -41 -97 -10 0 -12
60 -3 84 5 13 44 24 44 13z m860 -71 c0 -2 -14 -19 -30 -36 -17 -18 -36 -53
-43 -77 -12 -48 -24 -55 -33 -19 -6 25 17 90 43 118 14 15 63 26 63 14z m379
-340 c-2 -2 -33 -11 -69 -20 -97 -25 -197 -76 -271 -139 -83 -70 -172 -199
-210 -303 -31 -88 -37 -84 -13 10 39 150 172 321 305 391 86 45 146 63 213 64
27 1 47 -1 45 -3z m-90 -188 c-51 -57 -152 -168 -223 -248 -163 -179 -270
-290 -228 -235 82 108 522 585 540 585 2 0 -38 -46 -89 -102z m-1274 -89 c15
-7 13 -8 -10 -4 l-30 6 30 -19 c17 -10 32 -16 35 -11 18 26 140 14 140 -14 0
-6 3 -8 6 -4 15 15 154 -89 154 -115 0 -6 -6 -5 -14 1 -11 10 -15 8 -19 -6 -4
-14 -5 -13 -6 5 -1 29 -14 28 -37 -3 -14 -19 -25 -24 -42 -20 -15 4 -21 2 -17
-5 16 -25 -18 -6 -66 40 -30 27 -60 50 -66 50 -7 0 -13 6 -13 13 0 19 -36 50
-52 44 -7 -2 -28 2 -47 9 -18 8 -35 14 -38 14 -13 0 34 -47 119 -119 54 -46
95 -88 91 -94 -3 -5 -1 -7 4 -4 15 9 223 -174 223 -195 0 -13 -80 -9 -136 6
-57 15 -154 64 -154 78 0 4 -7 8 -15 8 -9 0 -15 7 -13 16 2 10 -3 19 -11 22
-9 3 -11 0 -6 -9 5 -8 -1 -5 -14 5 -12 11 -19 26 -17 33 3 7 0 12 -6 10 -17
-3 -84 131 -98 196 -18 80 -12 90 53 82 28 -4 61 -12 72 -16z m1439 -484 c-5
-272 -8 -305 -26 -348 -28 -65 -90 -107 -200 -136 -45 -11 -48 -5 -11 25 27
21 28 25 32 140 3 104 1 119 -15 131 -14 10 -76 13 -266 13 -136 0 -248 3
-248 6 0 3 21 45 47 92 25 48 47 88 47 89 1 1 39 7 86 13 222 30 371 129 491
324 l54 89 8 -69 c4 -38 5 -204 1 -369z m-1091 158 c9 -3 17 -12 17 -20 0 -8
4 -12 9 -9 8 5 24 -34 18 -41 -2 -1 -28 23 -58 54 -30 32 -43 50 -29 40 14
-10 33 -20 43 -24z m832 -359 c10 -4 15 -19 14 -48 l-1 -41 -9 33 -10 33 -524
-3 c-288 -2 -525 -5 -528 -8 -4 -6 9 -169 15 -175 2 -2 238 -5 526 -7 287 -2
522 -6 522 -10 0 -5 -247 -8 -550 -8 l-550 0 0 49 c0 26 -3 76 -6 109 -6 58
-6 62 17 71 26 9 1059 14 1084 5z m-68 -346 c-2 -18 -4 -4 -4 32 0 36 2 50 4
33 2 -18 2 -48 0 -65z m-10 -70 c-3 -7 -5 -2 -5 12 0 14 2 19 5 13 2 -7 2 -19
0 -25z"/>
<path d="M4419 8232 c-110 -37 -208 -127 -249 -229 -28 -71 -38 -210 -21 -280
20 -78 63 -153 114 -199 62 -56 163 -106 227 -112 l50 -5 0 -372 0 -372 -70
-12 c-95 -15 -155 -45 -218 -108 -100 -100 -137 -242 -97 -379 43 -151 151
-244 318 -275 l67 -13 -2 -340 -3 -340 -65 -13 c-199 -41 -360 -197 -415 -403
-19 -70 -19 -138 0 -237 21 -110 63 -188 144 -271 83 -84 162 -126 266 -143
l75 -12 0 -238 c0 -209 -2 -239 -15 -239 -51 0 -127 -84 -141 -155 -8 -43 11
-107 42 -144 14 -17 47 -38 72 -47 l47 -17 -3 -151 c-2 -83 -5 -152 -7 -154
-2 -2 -30 -10 -64 -17 -85 -20 -139 -48 -203 -105 -104 -92 -158 -241 -138
-382 14 -97 45 -161 114 -235 132 -142 325 -181 491 -99 135 67 223 170 246
289 l12 57 273 0 c238 0 274 -2 274 -15 0 -8 10 -36 22 -61 49 -104 186 -133
271 -56 24 22 57 85 57 111 0 18 9 19 153 23 162 3 185 10 206 55 12 27 13
209 1 293 -8 64 -9 61 -19 -127 -10 -192 -1 -183 -190 -183 l-146 0 -19 45
c-10 25 -33 57 -52 72 -88 66 -238 21 -271 -82 l-10 -30 -270 -3 -269 -2 -12
77 c-7 43 -21 95 -31 116 l-19 37 47 27 c25 14 102 61 171 103 69 43 193 118
275 167 83 50 207 126 276 170 l127 81 53 -55 c183 -185 506 -193 699 -17 l25
23 257 -252 256 -253 -29 -38 c-100 -135 -53 -344 98 -433 34 -20 63 -27 118
-31 63 -4 80 -1 134 23 111 50 173 145 175 270 1 55 -4 80 -23 120 -58 117
-166 180 -297 173 -56 -2 -79 -9 -110 -29 l-39 -26 -220 217 c-121 119 -235
231 -254 247 l-34 30 37 59 c50 82 75 151 82 232 l7 69 180 6 c99 4 275 7 392
7 l211 0 13 -48 c6 -27 23 -65 37 -85 13 -20 24 -40 24 -44 -1 -11 -230 -166
-230 -155 0 13 -67 42 -96 42 -49 0 -94 -30 -120 -81 -29 -59 -31 -107 -4
-159 25 -48 64 -70 126 -70 97 0 151 66 141 174 l-5 61 56 45 c31 25 76 64
100 87 l44 42 32 -24 c51 -39 120 -65 188 -72 52 -4 76 -1 135 20 121 42 179
99 218 215 l22 67 69 6 c38 4 133 9 212 12 l143 4 13 -32 c19 -44 52 -65 104
-65 120 0 196 111 146 215 -57 120 -239 85 -261 -50 l-5 -33 -167 -6 c-91 -4
-186 -8 -210 -9 l-44 -2 -13 61 c-13 67 -33 111 -71 162 l-24 32 64 68 c59 62
194 219 225 263 13 17 16 17 65 -10 109 -60 247 -67 346 -16 68 34 151 116
185 183 53 105 52 255 -2 357 -39 72 -112 141 -187 176 -61 29 -71 31 -167 27
-120 -4 -164 -21 -253 -101 l-55 -49 -157 99 c-130 81 -549 366 -576 392 -4 4
-1 27 8 50 24 68 15 176 -19 219 -10 14 7 32 32 32 8 0 64 27 127 60 146 78
317 141 560 206 l130 34 15 -22 c8 -12 32 -38 52 -59 96 -97 270 -63 335 65
21 42 24 60 21 122 -3 61 -8 80 -33 116 -60 85 -195 120 -278 70 l-36 -21
-108 113 c-118 122 -203 219 -203 230 0 4 11 22 24 39 37 49 74 128 86 184
l11 50 106 7 c58 3 144 6 190 6 71 0 84 -3 89 -17 21 -68 45 -102 86 -122 79
-38 164 -19 221 49 65 76 56 168 -22 243 -47 44 -53 47 -104 47 -97 0 -167
-48 -181 -124 l-7 -36 -187 0 -187 0 -11 58 c-16 80 -59 168 -109 217 l-42 42
26 30 c14 16 72 88 128 159 57 71 118 146 136 166 l34 37 54 -20 c141 -54 328
27 392 170 31 69 29 188 -4 261 -51 111 -151 175 -274 175 -59 0 -78 -5 -124
-30 -93 -51 -166 -143 -185 -232 l-7 -31 -182 -4 c-172 -3 -184 -4 -215 -26
-61 -44 -63 -58 -61 -320 l2 -236 -61 -11 c-67 -12 -142 -48 -200 -95 l-39
-31 -44 43 c-24 24 -106 100 -181 170 l-137 127 30 38 c17 20 70 79 118 129
66 70 91 90 102 83 21 -13 105 -11 142 5 69 28 114 114 103 193 -8 57 -31 97
-77 129 -72 50 -156 41 -230 -24 -40 -36 -43 -42 -47 -100 -4 -52 0 -70 23
-117 l26 -55 -19 -27 c-11 -16 -63 -70 -116 -121 l-97 -93 -33 28 c-19 15 -91
80 -160 143 -103 92 -126 119 -121 135 24 83 29 127 17 173 -27 98 -104 157
-207 157 -113 0 -204 -82 -213 -191 -8 -96 28 -166 112 -213 71 -41 146 -43
200 -6 20 14 40 25 43 25 27 0 313 -268 313 -294 0 -16 -128 -156 -348 -378
l-165 -167 -46 41 c-91 80 -188 112 -341 112 -95 0 -167 -12 -232 -39 -20 -8
-22 -5 -135 245 -155 340 -154 337 -136 352 9 7 29 33 45 57 57 90 28 222 -61
270 -106 58 -237 8 -276 -105 l-13 -39 -235 -3 -234 -2 -6 55 c-13 131 -105
255 -236 317 -57 27 -79 32 -161 35 -73 2 -108 -1 -151 -15z m131 -29 c31 -6
29 -8 -50 -36 -159 -55 -220 -110 -275 -248 -25 -62 -31 -69 -33 -46 -5 41 24
129 60 183 40 60 125 119 198 138 67 18 61 17 100 9z m2129 -72 c11 -7 5 -14
-25 -29 -51 -26 -78 -56 -104 -115 -12 -26 -24 -47 -27 -47 -3 0 -3 20 -1 45
11 93 104 180 157 146z m2051 -11 c11 -7 6 -10 -21 -10 -45 0 -124 -40 -183
-91 -36 -31 -49 -52 -62 -97 -33 -116 -47 -130 -58 -61 -14 89 59 205 157 249
45 21 141 27 167 10z m-1197 -66 c3 -4 -5 -16 -19 -27 -15 -11 -39 -38 -55
-60 -28 -39 -29 -39 -29 -13 0 50 40 106 75 106 12 0 25 -3 28 -6z m-1889 -93
c3 -5 -12 -20 -34 -35 -22 -14 -53 -44 -69 -66 -31 -43 -41 -42 -41 1 0 41 67
109 108 109 17 0 33 -4 36 -9z m2710 -137 c3 -9 6 -25 6 -37 1 -34 35 -101 74
-145 20 -22 32 -42 27 -44 -5 -1 -33 -33 -63 -69 -132 -165 -222 -275 -233
-287 -9 -10 -23 -8 -69 13 -32 14 -77 28 -101 32 l-42 5 -7 52 c-3 28 -6 132
-6 232 0 264 -5 259 271 262 117 2 138 0 143 -14z m-2891 -73 c32 -79 79 -114
161 -119 l64 -4 35 -77 c179 -388 227 -494 227 -505 0 -6 -14 -20 -32 -31 -18
-10 -52 -38 -75 -63 l-43 -44 -142 113 c-79 62 -190 152 -248 198 -58 47 -175
141 -260 210 -85 68 -172 138 -193 156 l-37 32 19 44 c10 24 22 65 25 91 l7
48 192 3 c310 5 275 11 300 -52z m-204 -466 c108 -88 224 -180 256 -205 52
-38 204 -161 243 -195 11 -10 6 -24 -23 -73 -32 -54 -39 -60 -58 -52 -235 91
-320 124 -359 138 -44 14 -48 19 -48 47 0 143 -134 218 -250 141 -46 -30 -70
-79 -70 -141 0 -98 60 -159 155 -159 63 0 104 20 130 62 16 25 25 32 45 28 14
-2 110 -39 214 -82 l188 -79 -6 -45 c-3 -25 -9 -84 -12 -132 -5 -66 -11 -88
-21 -88 -33 0 -536 -61 -617 -75 -49 -9 -93 -12 -96 -8 -4 4 -13 25 -19 45
-17 51 -86 142 -132 173 -32 20 -92 44 -186 71 -10 3 -13 86 -13 373 l0 371
28 6 c103 22 176 61 240 127 l44 45 85 -67 c46 -36 173 -138 282 -226z m2061
76 c47 -41 114 -103 150 -136 36 -34 75 -68 88 -77 l22 -15 -35 -59 c-39 -65
-55 -111 -55 -164 0 -55 -9 -61 -106 -71 -84 -8 -237 -29 -488 -65 -59 -8
-109 -14 -110 -12 -1 2 -17 28 -35 58 -18 30 -44 66 -56 80 l-23 25 244 250
c135 138 252 260 261 273 18 26 3 36 143 -87z m748 -138 c64 -30 161 -122 190
-179 11 -22 26 -68 33 -102 16 -76 2 -178 -35 -250 -51 -101 -194 -197 -311
-209 -145 -15 -299 77 -373 223 -27 54 -45 165 -37 231 18 146 149 280 308
313 67 14 165 3 225 -27z m-1684 -184 c34 -9 37 -12 22 -21 -10 -6 -66 -11
-125 -13 -164 -4 -266 -41 -359 -129 -130 -122 -185 -361 -132 -562 12 -42 19
-78 16 -81 -10 -11 -68 113 -81 174 -18 84 -18 136 -1 234 19 104 57 179 132
258 74 80 142 119 244 143 82 19 213 18 284 -3z m2466 -50 c0 -6 -16 -29 -35
-50 -33 -36 -35 -37 -35 -15 0 13 9 35 21 50 21 27 49 35 49 15z m-1345 -219
c29 -86 29 -87 -18 -103 l-42 -15 55 -2 c51 -2 58 -5 88 -40 43 -50 39 -62
-50 -156 l-71 -74 -58 0 c-47 0 -63 -5 -87 -25 -42 -35 -65 -98 -57 -153 7
-46 51 -106 86 -117 18 -6 19 -17 19 -179 l0 -173 -38 -7 c-22 -3 -55 -17 -76
-31 l-37 -25 -197 179 c-108 98 -225 208 -260 243 l-63 65 36 54 c74 113 107
285 80 423 -9 49 -11 82 -5 86 5 3 119 20 252 38 458 62 426 61 443 12z
m-1154 -137 c13 -16 12 -17 -3 -4 -10 7 -18 15 -18 17 0 8 8 3 21 -13z m-1649
-52 c77 -36 128 -89 166 -171 36 -75 37 -188 2 -275 -44 -113 -162 -202 -284
-214 -179 -18 -312 59 -388 224 -34 75 -32 191 4 265 75 151 177 213 343 206
77 -2 101 -8 157 -35z m1685 -48 c-3 -10 -5 -4 -5 12 0 17 2 24 5 18 2 -7 2
-21 0 -30z m1383 -61 c30 -11 71 -22 91 -26 l36 -6 7 -277 c3 -152 8 -279 11
-281 16 -16 20 37 23 283 l4 272 64 18 c35 9 88 32 118 50 l55 33 33 -42 c18
-22 90 -103 161 -179 l128 -137 -26 -34 c-20 -26 -27 -50 -32 -103 l-6 -68
-161 -42 c-233 -60 -330 -95 -521 -191 l-170 -85 -50 32 c-27 17 -67 34 -88
38 l-38 6 5 136 c3 75 5 153 5 173 1 33 5 39 35 52 42 17 82 70 91 117 7 37
-20 118 -43 133 -15 9 15 58 78 130 28 32 50 62 50 67 0 6 19 -3 43 -20 23
-17 67 -39 97 -49z m-2079 -134 c14 -42 43 -103 65 -135 21 -32 40 -61 42 -65
2 -4 -50 -74 -115 -154 -65 -81 -135 -169 -157 -196 -31 -40 -42 -49 -60 -43
-94 29 -150 11 -197 -63 -35 -55 -37 -91 -7 -143 l22 -39 -30 -33 c-29 -30
-129 -154 -253 -312 -79 -101 -78 -100 -120 -63 -51 45 -131 78 -219 92 l-77
12 -3 340 -2 340 60 18 c174 52 290 200 290 371 l0 61 243 32 c354 47 460 60
477 58 9 -1 25 -31 41 -78z m629 58 c0 -2 -8 -10 -17 -17 -16 -13 -17 -12 -4
4 13 16 21 21 21 13z m-43 -78 c-2 -13 -4 -5 -4 17 -1 22 1 32 4 23 2 -10 2
-28 0 -40z m1054 -31 c-16 -16 -26 0 -10 19 9 11 15 12 17 4 2 -6 -1 -17 -7
-23z m-1463 -117 c24 -28 42 -50 40 -50 -2 0 -26 23 -53 50 -27 28 -45 50 -40
50 6 0 29 -23 53 -50z m2752 32 c0 -4 -29 -35 -65 -70 -36 -34 -65 -56 -65
-49 0 19 46 88 73 109 22 18 57 24 57 10z m-2577 -214 c38 -11 92 -23 120 -27
l52 -6 3 -907 2 -908 -22 -4 c-13 -3 -48 -10 -78 -16 -74 -15 -172 -71 -247
-143 l-62 -59 -28 19 c-15 11 -134 80 -263 153 -129 73 -290 164 -358 202 -68
39 -122 73 -120 77 20 46 60 168 68 214 l11 57 203 0 204 0 12 -30 c17 -41 71
-87 121 -101 32 -10 50 -10 87 0 123 32 184 156 133 266 -34 74 -85 105 -173
105 -93 0 -165 -64 -183 -162 l-7 -38 -202 0 -202 0 -10 69 c-13 79 -57 179
-108 246 l-35 46 164 208 c91 115 171 214 179 220 12 10 20 10 38 -3 31 -22
93 -20 137 5 53 29 81 75 81 132 0 47 -16 97 -32 97 -18 0 -4 21 75 116 102
123 206 253 220 275 9 14 19 10 81 -33 42 -29 99 -57 139 -70z m618 65 l1 -58
9 44 c5 24 10 46 13 48 2 2 59 -47 127 -109 187 -171 310 -280 352 -312 33
-25 36 -31 24 -45 -20 -22 -47 -108 -47 -145 0 -17 12 -58 25 -91 14 -33 25
-63 25 -66 0 -5 -201 -191 -337 -312 -20 -18 -26 -19 -50 -7 -16 7 -48 16 -73
19 l-45 6 -3 148 c-3 193 -22 188 -22 -6 l0 -142 -45 -19 c-51 -21 -87 -62
-110 -125 -26 -74 -13 -139 37 -197 69 -78 162 -94 264 -43 92 45 127 168 77
268 l-22 44 72 66 c39 36 121 112 180 169 60 57 112 101 115 99 4 -2 35 -16
69 -32 l61 -29 5 -60 c3 -34 6 -179 7 -322 1 -260 1 -262 -22 -288 -22 -26
-24 -27 -75 -15 -72 17 -121 1 -167 -53 -40 -46 -54 -106 -36 -153 11 -27 9
-32 -18 -55 -16 -14 -82 -72 -147 -130 -65 -58 -146 -128 -180 -156 l-61 -51
-57 53 c-71 66 -160 110 -265 131 l-82 16 2 905 3 906 80 13 c92 16 162 45
242 102 31 23 60 41 65 41 4 0 8 -26 9 -57z m-361 -39 c0 -2 -7 -4 -15 -4 -8
0 -15 4 -15 10 0 5 7 7 15 4 8 -4 15 -8 15 -10z m1155 -350 c17 -8 23 -12 14
-10 -26 7 -141 -32 -167 -57 -56 -53 -95 -163 -68 -196 8 -11 8 -13 -3 -10
-17 6 -39 62 -40 99 -1 33 40 119 70 147 13 12 35 26 49 32 37 14 111 12 145
-5z m-205 -294 c0 -5 -2 -10 -4 -10 -3 0 -8 5 -11 10 -3 6 -1 10 4 10 6 0 11
-4 11 -10z m215 -60 c-3 -5 -14 -10 -23 -9 -14 0 -13 2 3 9 27 11 27 11 20 0z
m259 -90 c77 -52 151 -106 165 -120 l26 -25 -5 -510 -5 -510 -52 -7 c-92 -13
-159 -45 -202 -96 -60 -69 -90 -137 -93 -208 l-3 -62 -65 -6 c-36 -3 -211 -6
-390 -6 l-326 0 -16 69 c-9 38 -27 92 -40 120 l-25 50 71 64 c39 35 130 116
203 180 l132 117 38 -26 c33 -22 46 -25 98 -21 33 2 67 7 75 11 11 5 60 -36
168 -140 116 -112 156 -144 165 -135 9 9 -23 46 -132 155 -134 135 -143 146
-136 172 17 67 16 138 -3 174 l-18 35 28 36 28 37 2 331 3 332 59 24 c33 13
69 33 80 45 11 11 23 19 26 18 3 -2 68 -46 144 -98z m-3049 -85 c178 -38 311
-154 371 -324 32 -91 32 -129 -2 -137 -30 -8 -44 7 -44 47 0 15 -9 58 -21 95
-18 59 -30 77 -88 134 -51 52 -81 72 -136 94 -99 39 -187 47 -276 24 -157 -41
-245 -118 -298 -261 -59 -161 -27 -327 87 -450 51 -55 134 -99 219 -118 51
-12 53 -13 53 -46 0 -38 -8 -40 -89 -18 -136 36 -254 132 -317 260 -49 99 -65
223 -41 321 72 290 300 438 582 379z m3421 -171 c87 -58 177 -117 200 -130
l42 -25 -21 -42 c-13 -27 -22 -70 -25 -120 -6 -100 16 -186 69 -268 l40 -61
-29 -39 c-46 -62 -262 -299 -272 -299 -6 0 -10 4 -10 9 0 12 -94 51 -124 51
-26 0 -26 1 -27 78 -4 345 -6 952 -4 952 2 0 75 -48 161 -106z m-1316 -6 c58
-40 75 -71 75 -144 l0 -65 -52 -50 c-49 -47 -54 -49 -107 -49 -48 0 -60 4 -92
32 -20 18 -43 47 -50 65 -31 73 -4 180 53 215 42 26 131 24 173 -4z m2037 -19
c56 -27 134 -103 164 -160 21 -39 24 -57 24 -159 0 -135 -15 -177 -95 -258
-74 -76 -126 -97 -235 -97 -79 0 -97 4 -149 29 -69 34 -128 91 -164 161 -25
46 -27 60 -27 165 0 109 2 118 30 170 51 91 119 146 212 170 60 15 189 4 240
-21z m-3143 -121 c-5 -7 -25 -35 -46 -61 -28 -35 -40 -45 -44 -34 -7 20 20 72
48 91 27 19 52 21 42 4z m-1178 -71 c-2 -12 -8 -32 -14 -44 -7 -12 -12 -43
-13 -70 0 -56 -12 -37 -23 40 -7 43 -6 47 13 47 12 0 22 5 22 10 1 6 3 15 4
20 1 6 3 12 4 15 4 15 9 2 7 -18z m94 19 c0 -2 -18 -6 -39 -8 -22 -2 -37 0
-35 4 5 8 74 11 74 4z m474 -153 c-11 -77 -27 -139 -50 -184 -74 -147 -214
-246 -378 -265 l-56 -7 0 36 c0 38 -4 36 95 52 56 9 152 62 201 111 47 47 109
164 119 226 9 52 20 68 51 68 21 0 22 -4 18 -37z m-134 -89 c-7 -24 -17 -44
-21 -44 -5 0 -9 -7 -9 -15 0 -8 -4 -15 -10 -15 -5 0 2 21 15 46 14 26 25 59
26 73 0 14 3 20 6 13 3 -8 0 -33 -7 -58z m-303 12 c0 -8 -6 -12 -14 -9 -10 4
-13 -19 -13 -116 0 -115 1 -121 21 -121 11 0 18 4 15 9 -7 11 33 20 84 19 31
0 32 -1 12 -9 -12 -4 -30 -5 -39 -2 -11 4 -14 3 -9 -5 5 -8 2 -10 -8 -6 -9 3
-16 2 -16 -4 0 -5 -16 -12 -35 -14 l-35 -4 0 132 c0 118 2 133 18 137 9 3 17
5 18 6 0 0 1 -5 1 -13z m-98 -148 c-1 -81 -4 -99 -8 -63 -6 51 -3 175 5 175 2
0 3 -51 3 -112z m2661 103 c0 -5 -10 -22 -23 -38 -13 -15 -27 -37 -31 -48 -7
-19 -8 -19 -17 -3 -10 19 0 47 29 81 16 18 42 23 42 8z m-2750 -121 c0 -5 -4
-10 -10 -10 -5 0 -10 5 -10 10 0 6 5 10 10 10 6 0 10 -4 10 -10z m375 -10 c-3
-5 -12 -10 -18 -10 -7 0 -6 4 3 10 19 12 23 12 15 0z m254 -64 c31 -18 88 -50
126 -71 66 -36 249 -141 480 -276 54 -32 104 -60 109 -62 6 -2 -1 -29 -16 -63
-14 -32 -31 -92 -38 -131 l-12 -73 -136 0 c-76 0 -167 -3 -204 -6 l-67 -7 -17
41 c-56 142 -239 149 -312 12 -43 -82 -11 -190 69 -230 82 -43 187 -10 226 70
12 25 24 53 27 63 5 15 24 17 214 17 l209 0 7 -56 c6 -55 30 -112 68 -167 11
-16 19 -30 17 -31 -2 -2 -15 -9 -29 -16 -14 -7 -97 -59 -185 -115 -88 -56
-250 -155 -360 -220 -110 -64 -226 -135 -257 -156 l-57 -39 -48 48 c-76 76
-142 109 -275 137 l-28 5 0 155 0 154 44 19 c59 27 98 80 104 143 8 88 -44
179 -114 198 l-29 7 -3 236 -2 235 68 6 c118 10 246 75 320 163 20 24 38 44
40 44 3 0 30 -15 61 -34z m-616 17 c-7 -2 -19 -2 -25 0 -7 3 -2 5 12 5 14 0
19 -2 13 -5z m2008 -265 c194 -96 287 -276 259 -499 -13 -104 -44 -170 -117
-249 -152 -164 -371 -206 -570 -109 -73 36 -183 151 -224 234 -33 68 -34 73
-34 190 0 149 25 230 94 307 67 75 171 141 256 162 11 3 75 4 141 2 118 -2
124 -3 195 -38z m1563 -53 c117 -56 201 -223 176 -353 -13 -68 -33 -108 -84
-160 -50 -53 -92 -76 -168 -91 -63 -13 -145 -4 -197 23 -52 27 -138 114 -155
158 -42 104 -28 229 36 324 40 58 70 81 139 105 69 25 195 22 253 -6z m691
-231 c-10 -19 -15 -23 -15 -11 0 20 23 62 28 49 1 -5 -4 -22 -13 -38z m-4094
-191 c13 -15 12 -15 -8 -4 -16 8 -29 9 -42 2 -10 -6 -21 -7 -25 -4 -7 7 -52
-40 -83 -84 -23 -34 -35 -17 -17 25 26 64 51 82 110 82 36 0 56 -5 65 -17z
m44 -152 c-3 -2 -5 1 -5 8 0 7 -4 10 -9 7 -4 -3 -6 7 -3 22 l5 27 8 -29 c5
-17 6 -32 4 -35z m-20 -35 c-8 -12 -30 -31 -48 -41 -28 -15 -39 -16 -69 -6
-38 12 -76 47 -65 58 4 3 7 1 7 -5 0 -7 12 -12 28 -12 21 0 24 3 12 10 -10 6
10 10 65 13 44 1 81 4 83 5 1 1 -4 -9 -13 -22z m2625 -87 c0 -9 -35 -62 -62
-93 -4 -6 -8 2 -8 16 0 15 12 40 26 57 26 32 44 40 44 20z m-2580 -396 c112
-30 183 -92 237 -209 24 -53 27 -70 27 -159 -1 -78 -6 -113 -24 -158 -30 -80
-116 -167 -207 -210 -63 -29 -76 -32 -168 -32 -93 0 -105 2 -165 32 -76 37
-157 114 -189 178 -74 149 -34 369 88 477 114 100 238 126 401 81z m2738 -119
c58 -23 113 -75 138 -128 75 -160 -29 -359 -199 -382 -119 -17 -263 89 -285
208 -18 94 31 246 77 241 14 -2 19 2 15 11 -7 17 47 56 90 66 40 9 122 1 164
-16z m-1758 -174 c0 -6 -18 -30 -40 -53 -31 -33 -40 -38 -40 -23 0 30 39 86
61 86 10 0 19 -5 19 -10z"/>
<path d="M7835 7167 c-117 -39 -195 -121 -221 -234 -15 -64 -9 -109 22 -180
71 -164 254 -235 408 -158 67 34 115 86 152 164 23 48 26 64 22 130 -3 50 -12
90 -26 116 -26 53 -101 121 -159 147 -57 25 -146 32 -198 15z"/>
<path d="M4417 6521 c-68 -34 -105 -70 -132 -125 -37 -77 -42 -147 -15 -219
29 -77 59 -110 132 -146 189 -95 407 30 408 233 0 81 -17 129 -64 183 -57 65
-122 93 -216 93 -55 0 -86 -5 -113 -19z"/>
<path d="M8555 4872 c-53 -25 -117 -97 -140 -155 -35 -93 3 -240 80 -304 81
-70 196 -84 291 -38 100 49 150 142 142 264 -8 105 -59 185 -146 227 -55 27
-176 30 -227 6z m39 -54 c-16 -12 -36 -29 -44 -38 -9 -8 -38 -35 -64 -60 l-48
-45 20 40 c31 62 104 124 146 125 15 0 13 -4 -10 -22z"/>
<path d="M4451 4694 c0 -11 3 -14 6 -6 3 7 2 16 -1 19 -3 4 -6 -2 -5 -13z"/>
<path d="M6127 4010 c-176 -45 -298 -221 -285 -413 8 -103 40 -180 105 -248
208 -218 533 -170 666 100 30 62 32 72 32 176 0 108 -1 113 -38 188 -43 87
-104 142 -199 179 -60 23 -218 33 -281 18z"/>
<path d="M7807 3906 c-48 -18 -72 -39 -106 -96 -21 -37 -26 -57 -25 -110 1
-84 23 -131 81 -169 55 -37 116 -47 183 -31 106 25 160 95 160 205 0 50 -5 69
-28 106 -16 24 -38 52 -48 61 -52 46 -143 60 -217 34z m-4 -58 c-29 -48 -83
-119 -83 -110 0 23 23 68 48 95 26 28 49 37 35 15z"/>
<path d="M4510 2840 c-111 -14 -193 -73 -242 -175 -23 -49 -28 -74 -28 -132 0
-136 50 -217 174 -285 55 -30 69 -33 141 -33 68 0 89 5 136 29 125 63 181 153
183 295 1 75 -2 92 -26 136 -65 124 -187 183 -338 165z"/>
<path d="M7250 2698 c-19 -12 -39 -22 -43 -23 -12 0 -46 -105 -47 -143 -1
-103 113 -194 212 -168 64 16 137 113 138 182 0 48 -49 135 -90 156 -49 25
-126 24 -170 -4z"/>
<path d="M7978 2163 c-24 -6 -23 -23 0 -23 10 0 19 7 19 15 0 8 -1 14 -1 14
-1 -1 -9 -3 -18 -6z"/>
<path d="M8020 2140 c0 -5 10 -15 23 -21 22 -12 22 -12 3 10 -21 23 -26 26
-26 11z"/>
<path d="M2311 8609 c-247 -48 -363 -224 -306 -465 7 -33 34 -104 59 -158 70
-150 71 -158 52 -275 -10 -56 -24 -119 -33 -139 -20 -49 -69 -99 -118 -121
-22 -10 -67 -37 -99 -59 -33 -23 -63 -42 -68 -42 -5 0 -34 -16 -64 -35 -58
-37 -69 -42 -58 -23 9 14 2 10 -92 -53 -82 -55 -124 -100 -160 -171 -42 -82
-112 -291 -150 -443 -29 -116 -33 -144 -23 -162 10 -18 6 -63 -20 -235 -18
-117 -39 -249 -47 -294 -19 -107 -18 -218 2 -285 46 -155 198 -397 446 -710
l68 -87 0 -253 c0 -140 -4 -366 -10 -504 -5 -137 -14 -389 -20 -560 -6 -170
-18 -355 -25 -410 -58 -402 -75 -658 -75 -1122 0 -214 -3 -304 -11 -309 -14
-8 -4 -150 11 -169 6 -7 26 -16 45 -19 l35 -7 0 -137 c0 -119 -5 -158 -35
-297 -19 -88 -35 -170 -35 -182 0 -12 -4 -25 -10 -28 -11 -7 -14 -135 -2 -136
19 -1 549 -1 641 1 71 1 99 5 88 11 -13 8 -15 19 -11 52 4 32 -1 51 -18 82
-26 44 -88 90 -132 99 -41 9 -56 24 -56 58 0 18 -11 43 -25 60 -30 36 -31 48
-5 48 11 0 20 5 20 11 0 7 -9 9 -24 5 -23 -6 -24 -4 -22 48 1 39 -4 59 -16 73
-15 16 -18 38 -18 121 0 100 0 102 23 102 43 0 55 20 60 100 2 41 0 84 -6 97
-11 24 -8 53 68 603 25 179 57 385 71 458 14 74 23 136 20 139 -3 3 -8 -3 -12
-13 -33 -102 -131 -234 -219 -294 -70 -48 -64 -35 16 39 81 75 136 149 216
295 7 13 19 65 27 117 8 52 26 148 41 214 14 66 30 145 36 175 5 30 28 114 50
185 49 158 50 163 55 150 8 -23 56 -294 59 -335 2 -25 9 -99 14 -165 6 -66 11
-205 11 -310 0 -310 34 -890 66 -1135 10 -78 12 -116 4 -118 -11 -4 -12 -97
-1 -147 5 -25 12 -31 49 -39 l42 -10 0 -135 c0 -130 -9 -198 -44 -356 -9 -38
-16 -80 -16 -93 0 -12 -7 -34 -16 -47 -11 -17 -15 -41 -12 -75 3 -44 1 -50
-17 -50 -11 0 -26 -4 -33 -9 -9 -5 5 -11 40 -15 64 -9 1090 -9 1168 0 l55 6
-5 63 c-6 72 -13 84 -36 64 -33 -27 -561 -27 -679 0 -22 5 -105 36 -185 69
-80 33 -164 63 -187 67 -24 4 -43 10 -43 15 0 21 141 -22 281 -86 89 -41 109
-46 235 -59 200 -21 557 -16 581 9 10 10 -18 56 -47 78 -15 11 -70 26 -134 38
-89 16 -121 26 -170 57 -112 68 -243 173 -260 206 l-15 32 42 5 c28 3 42 10
42 19 0 28 -101 39 -156 16 -14 -5 -17 5 -23 63 -8 83 -1 122 24 122 24 0 30
20 30 103 -1 47 -6 79 -15 91 -12 16 -14 44 -9 145 2 69 9 320 14 556 6 250
14 447 21 470 7 26 12 239 15 600 3 308 9 575 13 595 5 27 13 36 38 43 17 5
62 33 100 61 59 45 70 59 86 107 30 87 31 146 8 346 -12 103 -30 278 -41 388
-38 377 -69 650 -84 725 -9 44 -20 198 -27 374 l-12 298 22 17 c21 16 21 20
11 86 -5 39 -17 120 -25 180 -19 138 -68 342 -96 396 -28 55 -91 122 -164 174
-71 50 -283 158 -343 174 -40 11 -42 14 -42 49 0 20 3 53 6 73 l6 37 79 4
c105 4 114 14 129 133 17 132 16 129 50 142 37 14 39 36 9 119 -15 44 -21 88
-23 179 -2 66 -6 127 -10 136 -5 12 2 22 28 37 43 26 68 72 64 120 -4 44 -20
49 -24 7 -6 -55 -135 -136 -215 -134 -42 1 -41 1 30 20 76 20 129 52 158 96
16 24 15 27 -14 82 -49 87 -65 95 -154 81 -55 -9 -94 -9 -152 -1 -90 13 -163
13 -226 0z m428 -35 c-33 -36 -72 -54 -111 -53 -31 1 -30 2 10 10 47 9 76 26
99 59 8 12 18 19 21 16 3 -4 -5 -18 -19 -32z m27 -102 c-23 -45 -94 -76 -154
-67 -54 8 -132 33 -146 46 -6 5 16 0 47 -11 115 -40 219 -19 248 52 7 17 15
26 17 20 2 -6 -4 -24 -12 -40z m-231 -130 c-6 -6 -94 18 -100 28 -2 4 20 0 50
-8 30 -8 53 -17 50 -20z m165 -27 l74 -2 14 -64 c7 -35 11 -92 9 -126 -4 -48
1 -77 19 -130 31 -87 31 -103 0 -103 -40 0 -58 -10 -45 -26 16 -20 1 -74 -24
-84 -19 -7 -19 -9 -4 -9 16 -1 18 -7 11 -58 -10 -84 -13 -86 -119 -81 -139 8
-249 62 -295 146 l-21 37 6 -50 c10 -88 13 -97 42 -129 15 -17 32 -35 37 -41
4 -5 3 0 -3 12 -6 12 -17 27 -23 35 -7 7 -19 22 -26 33 -8 11 3 0 25 -24 21
-25 64 -73 97 -109 58 -64 58 -65 53 -113 -6 -49 -1 -59 20 -38 19 19 63 2 63
-23 0 -35 -42 -87 -88 -109 -38 -19 -56 -21 -130 -17 -100 6 -175 29 -257 79
-62 37 -135 96 -135 108 0 5 16 19 34 32 59 40 90 118 117 289 6 41 16 84 22
95 6 11 10 28 8 38 -3 22 4 22 38 -4 30 -22 91 -31 98 -14 2 6 -8 12 -22 13
-44 3 -66 22 -91 75 -31 68 -31 107 2 146 39 47 111 37 134 -20 16 -37 44 -62
67 -57 26 4 72 146 73 220 0 75 21 93 95 82 28 -4 84 -8 125 -9z m-596 -1044
c83 -57 155 -82 256 -88 98 -6 146 4 213 47 45 29 50 35 96 140 10 23 10 22 5
-10 -16 -86 -81 -157 -168 -181 -110 -31 -267 -3 -383 68 -70 43 -193 148
-193 166 0 6 26 -14 58 -45 31 -31 83 -74 116 -97z m-434 6 c0 -2 -29 -25 -65
-51 -36 -26 -65 -49 -65 -51 0 -2 24 -27 54 -55 100 -95 183 -302 193 -485 4
-61 10 -102 15 -99 6 4 30 47 54 97 24 50 44 84 44 76 0 -24 -76 -172 -98
-193 -12 -10 -26 -41 -32 -73 -9 -39 -15 -51 -23 -45 -13 11 -430 132 -453
132 -8 0 -14 6 -14 13 0 10 24 5 88 -16 48 -15 137 -42 197 -58 61 -16 127
-36 147 -44 l37 -14 7 47 c14 87 9 283 -9 347 -53 192 -162 351 -227 330 -10
-3 -28 -20 -38 -38 -21 -33 -98 -248 -153 -425 -17 -56 -34 -101 -36 -98 -15
14 127 456 167 520 38 62 210 211 210 183z m1380 -728 c-5 -283 -11 -552 -12
-599 l-2 -85 -5 100 c-12 195 10 1117 26 1102 2 -2 -1 -235 -7 -518z m150 -59
c0 -5 -12 -10 -27 -9 l-28 1 25 8 c14 4 26 8 28 9 1 1 2 -3 2 -9z m-1830 -36
c107 -40 306 -94 346 -94 16 0 24 -5 21 -12 -5 -16 5 -17 -140 22 -119 31
-290 89 -324 109 -35 20 3 11 97 -25z m-64 -76 l-5 -53 11 48 c6 26 15 47 19
47 5 0 7 -21 4 -47 l-5 -48 14 45 14 45 2 -45 3 -45 7 40 7 40 3 -45 c2 -45 2
-45 10 -12 4 18 10 36 14 39 6 6 10 -37 7 -64 -3 -24 10 -13 20 17 15 41 29
38 19 -5 -9 -41 4 -48 16 -7 l7 27 7 -30 c6 -23 8 -25 9 -8 0 12 5 25 11 28 6
4 8 -7 4 -27 l-5 -33 21 35 21 35 -5 -34 -6 -33 20 23 20 24 -5 -30 -6 -30 16
28 c21 36 28 34 20 -5 l-6 -33 16 28 c21 37 27 34 19 -10 -4 -21 -3 -35 0 -31
7 5 13 27 15 51 1 4 5 7 10 7 14 0 -6 -83 -69 -285 -16 -49 -36 -116 -46 -147
l-17 -58 -53 0 c-66 0 -70 -13 -10 -30 25 -7 52 -20 60 -29 9 -9 53 -91 99
-181 171 -338 231 -447 297 -540 37 -53 75 -102 84 -109 9 -7 16 -24 16 -38 0
-33 -60 -160 -95 -201 -26 -32 -28 -32 -47 -15 -10 9 -39 51 -64 93 -25 41
-99 143 -165 225 -271 339 -426 611 -436 765 -6 82 86 670 104 670 2 0 2 -24
-1 -52z m1887 45 c-7 -2 -19 -2 -25 0 -7 3 -2 5 12 5 14 0 19 -2 13 -5z m-19
-125 c8 -89 26 -409 26 -461 0 -32 -4 -39 -27 -49 l-28 -11 32 -8 c23 -7 33
-16 37 -37 8 -40 34 -246 41 -327 4 -38 13 -119 20 -180 8 -60 21 -189 30
-285 8 -96 25 -251 36 -345 34 -274 12 -351 -120 -436 -82 -53 -116 -24 -37
30 80 55 97 107 80 235 -6 41 -9 46 -28 40 -17 -5 -19 -4 -8 7 14 15 16 39 2
39 -11 0 -24 -48 -41 -157 -10 -69 -10 -85 1 -99 12 -14 12 -18 -5 -30 -23
-17 -45 -18 -45 -1 -1 6 -1 120 0 252 1 235 1 240 23 257 l22 17 -26 9 c-25
10 -26 14 -33 124 -17 264 -32 416 -43 429 -6 8 -15 42 -18 76 -7 54 -5 65 14
89 26 33 26 41 1 95 -18 41 -20 67 -20 405 0 313 2 363 15 368 10 3 15 -1 16
-12 0 -13 3 -11 9 6 9 22 30 31 30 12 0 -5 5 -10 10 -10 6 0 10 7 10 15 0 8 4
15 9 15 5 0 12 -33 15 -72z m-1124 -403 c29 -44 78 -111 108 -150 76 -97 82
-108 27 -50 -95 99 -195 255 -291 452 -52 106 -94 198 -93 205 0 7 44 -75 97
-182 54 -107 122 -231 152 -275z m-335 90 c37 -277 57 -614 35 -600 -9 6 -60
110 -123 250 -17 39 -42 87 -55 108 -27 45 -24 70 28 229 17 51 37 120 46 153
8 33 18 67 21 75 8 20 28 -69 48 -215z m113 -290 c39 -77 94 -171 122 -208 37
-48 45 -64 28 -53 -48 31 -160 218 -202 336 -15 41 -25 72 -23 70 3 -3 37 -68
75 -145z m985 -135 c-56 -50 -158 -72 -521 -115 -31 -3 -51 -2 -48 3 3 5 37
12 76 16 148 13 354 48 406 67 30 12 67 31 82 44 39 33 43 19 5 -15z m248 -46
c0 -4 -19 -13 -43 -19 -146 -40 -500 -142 -590 -171 -114 -36 -128 -39 -112
-25 12 11 177 65 279 90 67 17 200 57 420 125 41 13 47 13 46 0z m-1153 -98
c26 -13 65 -29 87 -35 66 -20 68 -21 63 -26 -9 -9 -131 34 -173 60 -51 31 -39
32 23 1z m1132 -5 c0 -6 -28 -24 -63 -41 -63 -31 -162 -53 -294 -66 -128 -13
-102 -24 49 -22 l146 3 7 -62 c4 -34 5 -85 4 -113 -3 -58 10 -80 35 -55 13 13
16 41 17 153 1 75 4 125 6 110 4 -25 8 -27 61 -30 l57 -3 0 -75 0 -75 -50 -5
c-45 -5 -50 -7 -55 -35 -10 -46 -29 -75 -50 -75 -31 0 -40 32 -40 142 l0 103
-140 0 -140 0 0 -66 c0 -52 4 -68 16 -73 9 -3 69 -3 135 0 86 5 119 4 119 -5
0 -13 -89 -17 -305 -12 l-150 3 -13 -36 c-10 -27 -19 -36 -36 -36 -29 0 -46
18 -46 48 l0 23 -122 -3 -123 -3 -8 -84 c-4 -46 -12 -98 -17 -115 -10 -33 -9
-9 5 141 l6 61 -68 7 c-37 3 -77 7 -88 8 -18 2 -20 10 -23 80 l-3 78 -39 -2
c-22 -2 -43 1 -47 5 -4 5 44 6 107 2 63 -3 188 -6 278 -6 90 0 161 -4 158 -8
-8 -13 11 -203 22 -214 20 -20 35 24 40 116 l5 94 -29 5 c-16 2 20 5 79 6 70
0 106 -3 102 -9 -3 -5 -37 -10 -76 -10 l-69 0 0 -65 0 -65 39 0 c21 0 58 -3
82 -6 l44 -6 -3 81 c-3 59 0 84 10 94 13 13 70 24 252 47 66 8 155 41 214 78
1 1 2 -2 2 -7z m-365 -216 c0 -23 -4 -30 -20 -30 -21 0 -31 25 -21 51 11 28
41 12 41 -21z m65 -294 c0 -208 -8 -245 -74 -338 -45 -65 -51 -51 -7 17 61 93
73 156 69 348 -2 89 0 162 5 162 4 0 7 -85 7 -189z m-633 102 c-2 -16 -4 -3
-4 27 0 30 2 43 4 28 2 -16 2 -40 0 -55z m493 -283 c-7 -80 -25 -194 -45 -280
-19 -80 -48 -212 -64 -295 -51 -250 -139 -586 -140 -538 -1 23 10 88 23 145
13 57 43 186 66 288 23 102 61 266 85 365 54 220 65 304 65 506 0 85 3 159 8
163 12 13 14 -213 2 -354z m-503 190 c-9 -81 -23 -111 -122 -258 -128 -191
-155 -226 -155 -207 0 9 21 40 46 68 25 28 63 80 86 116 22 36 55 91 74 121
37 60 51 100 61 173 9 69 17 58 10 -13z m1000 -12 c-3 -8 -6 -5 -6 6 -1 11 2
17 5 13 3 -3 4 -12 1 -19z m-1086 -85 c-12 -20 -14 -14 -5 12 4 9 9 14 11 11
3 -2 0 -13 -6 -23z m-210 -171 c2 -68 -1 -86 -15 -100 -17 -16 -18 -16 -10 8
5 14 9 62 8 108 0 45 3 79 8 74 4 -4 8 -45 9 -90z m88 -29 c-16 -27 -45 -67
-64 -91 l-34 -42 -1 -223 c0 -274 -41 -1176 -55 -1227 -6 -23 -53 -447 -65
-590 -16 -200 -30 -753 -19 -765 6 -6 91 -11 199 -13 126 -3 190 -7 190 -15 0
-13 -404 -3 -440 12 -25 10 -25 10 -2 10 12 1 24 7 27 14 2 6 8 161 14 342 12
367 38 708 75 991 24 177 66 1053 66 1352 l0 143 57 67 c49 59 72 81 80 82 2
0 -11 -21 -28 -47z m1340 -335 c-18 -33 -24 -4 -8 35 12 28 14 29 17 10 2 -12
-2 -32 -9 -45z m-651 -278 c-1 -163 -6 -144 -10 38 -2 74 -1 125 3 115 4 -10
7 -79 7 -153z m9 -302 c-2 -29 -3 -6 -3 52 0 58 1 81 3 53 2 -29 2 -77 0 -105z
m10 -140 c-2 -18 -4 -6 -4 27 0 33 2 48 4 33 2 -15 2 -42 0 -60z m10 -100 c-2
-13 -4 -3 -4 22 0 25 2 35 4 23 2 -13 2 -33 0 -45z m-17 -230 c27 -78 50 -219
49 -292 -2 -53 -3 -49 -10 34 -9 103 -39 219 -94 360 -19 49 -35 93 -34 97 1
13 69 -138 89 -199z m-365 -52 c-9 -44 -26 -102 -37 -129 -26 -61 -115 -144
-164 -153 -45 -8 -163 1 -175 13 -6 6 12 7 47 2 61 -8 146 3 173 23 83 62 109
114 135 273 22 130 30 153 34 96 2 -24 -4 -80 -13 -125z m836 15 c-14 -112
-34 -165 -94 -246 -43 -58 -127 -137 -127 -119 0 4 29 38 65 75 89 92 124 175
140 332 5 44 11 65 17 59 6 -6 6 -43 -1 -101z m-330 -328 c-12 -23 -61 -69
-61 -58 0 8 60 75 67 75 2 0 -1 -8 -6 -17z m-91 -143 l-7 -75 -1 85 c-1 46 2
80 6 75 5 -6 5 -44 2 -85z m9 -137 c1 -7 -3 -13 -9 -13 -5 0 -10 17 -9 38 1
33 2 34 9 12 4 -14 8 -31 9 -37z m-513 -62 c-15 -57 -61 -161 -71 -161 -3 0 1
15 9 33 8 17 27 72 42 121 31 98 44 102 20 7z m511 -208 c-2 -32 -3 -6 -3 57
0 63 1 89 3 58 2 -32 2 -84 0 -115z m28 -477 l7 -169 190 5 c182 4 248 -2 151
-16 -76 -10 -421 -7 -428 4 -4 6 10 10 36 10 l42 0 -6 48 c-4 26 -8 155 -11
287 -5 259 5 168 19 -169z m75 -368 c0 12 5 22 10 22 6 0 10 -10 11 -22 1 -21
1 -22 7 -3 6 17 16 20 65 21 51 1 57 -1 58 -20 1 -17 2 -18 6 -3 2 9 9 15 14
12 5 -4 9 0 10 7 1 7 5 2 9 -12 l8 -25 1 25 1 24 16 -22 c8 -12 12 -27 8 -34
-4 -7 -3 -8 5 -4 6 4 9 18 7 32 -3 13 -1 24 3 24 8 0 31 -121 31 -162 0 -16
-10 -28 -33 -38 -21 -10 -38 -29 -51 -56 -32 -72 -111 -97 -178 -56 l-35 22
-6 129 c-8 143 -3 179 19 140 l13 -24 1 23z m-1019 -20 c1 -21 1 -22 7 -3 7
21 62 31 62 12 0 -7 4 -7 12 1 18 18 38 14 38 -8 0 -11 5 -20 11 -20 5 0 8 4
5 8 -2 4 -1 14 5 22 7 12 9 9 10 -10 l1 -25 8 25 c4 14 9 18 9 10 1 -13 2 -13
11 0 8 12 10 11 10 -7 0 -13 4 -23 8 -23 4 0 8 -9 9 -20 1 -13 -2 -18 -10 -14
-8 5 -8 3 1 -7 6 -7 12 -27 12 -45 0 -31 0 -31 -64 -38 -83 -8 -129 -28 -156
-66 -12 -16 -26 -30 -31 -30 -5 0 -9 56 -9 130 l0 130 25 0 c19 0 25 -5 26
-22z m1439 -138 c0 -5 -6 -10 -14 -10 -8 0 -18 5 -21 10 -3 6 3 10 14 10 12 0
21 -4 21 -10z m-1227 -39 c14 -6 29 -23 36 -42 l11 -32 -23 25 c-44 48 -131
48 -187 2 -28 -24 -41 -17 -22 13 23 37 127 56 185 34z m1127 -15 c-25 -7 -56
-18 -68 -25 -21 -11 -23 -11 -20 6 3 19 39 30 98 31 34 0 34 0 -10 -12z
m-1102 -62 c38 -11 24 -21 -38 -27 -59 -7 -109 -25 -142 -54 -24 -21 -31 1
-10 28 12 13 44 29 83 40 76 20 78 20 107 13z m1192 -3 c0 -4 -34 -22 -75 -38
-41 -17 -75 -27 -75 -24 0 8 118 68 138 70 6 0 12 -3 12 -8z m-1400 -40 c-5
-11 -15 -23 -22 -27 -7 -5 -8 -2 -3 7 21 37 44 55 25 20z m1461 -8 c12 -15 12
-16 -8 -11 -12 3 -23 3 -25 -1 -4 -8 -67 -41 -79 -41 -5 0 -9 7 -9 15 0 8 9
15 20 15 11 0 20 3 20 8 0 8 38 29 56 31 6 0 18 -7 25 -16z m-1221 -12 c0 -4
-21 -11 -46 -15 -78 -10 -123 -26 -145 -49 -19 -20 -21 -21 -17 -3 1 11 17 28
35 38 47 28 173 49 173 29z m27 -48 c2 -6 -17 -14 -42 -18 -26 -3 -67 -15 -92
-26 -56 -24 -81 -19 -33 6 42 22 141 55 154 51 6 -1 11 -7 13 -13z m1237 2
c-17 -13 -16 -14 17 -8 22 3 39 1 43 -6 5 -7 -3 -11 -20 -11 -15 0 -44 -5 -66
-12 -28 -8 -42 -8 -50 0 -8 8 -4 13 15 17 14 4 31 13 38 21 6 8 19 14 27 14
13 0 12 -3 -4 -15z m-1417 -31 c-16 -9 -31 -13 -34 -10 -3 3 5 10 18 15 37 15
47 12 16 -5z m152 -8 c-2 -2 -35 -21 -74 -41 -42 -23 -64 -30 -55 -19 8 9 38
28 65 40 45 22 75 31 64 20z m40 -22 c-16 -20 -103 -64 -126 -64 -25 0 -5 17
59 51 62 33 88 38 67 13z m1311 6 c0 -5 -10 -10 -22 -9 -22 0 -22 1 -3 9 11 5
21 9 23 9 1 1 2 -3 2 -9z m-70 -4 c0 -2 -7 -7 -16 -10 -8 -3 -12 -2 -9 4 6 10
25 14 25 6z m120 1 c0 -2 -14 -14 -32 -27 l-31 -23 19 26 c15 21 44 37 44 24z
m-1706 -191 c59 -15 147 -17 241 -6 55 6 152 13 215 15 96 3 104 3 50 -5 -96
-12 -337 -30 -400 -30 -59 1 -177 23 -188 35 -4 5 3 6 15 3 20 -5 22 -3 17 26
l-5 31 14 -31 c9 -19 25 -34 41 -38z m1321 15 c-6 -6 -94 -11 -198 -13 -145
-2 -187 0 -187 10 0 9 46 12 197 12 123 0 193 -4 188 -9z m-757 -77 c-8 -7
-350 -26 -356 -19 -3 3 8 5 24 6 16 0 97 6 179 13 148 11 164 12 153 0z m-628
-10 c0 -2 -9 -4 -20 -4 -11 0 -20 4 -20 9 0 5 9 7 20 4 11 -3 20 -7 20 -9z"/>
<path d="M2219 8089 c-17 -17 -20 -29 -16 -57 6 -34 41 -82 60 -82 6 0 1 10
-11 23 -32 34 -38 78 -13 101 27 25 49 14 57 -28 3 -20 10 -36 14 -36 8 0 -3
70 -14 88 -12 19 -54 14 -77 -9z"/>
<path d="M2630 8075 c0 -2 9 -9 20 -15 16 -8 26 -7 42 5 22 15 21 15 -20 15
-23 0 -42 -2 -42 -5z"/>
<path d="M2250 8055 c0 -3 9 -22 20 -42 22 -42 26 -36 8 14 -10 28 -28 46 -28
28z"/>
<path d="M2410 7576 c0 -2 7 -9 15 -16 13 -11 14 -10 9 4 -5 14 -24 23 -24 12z"/>
<path d="M2490 7491 c0 -6 4 -13 10 -16 6 -3 7 1 4 9 -7 18 -14 21 -14 7z"/>
<path d="M1606 6225 c-9 -26 -7 -32 5 -12 6 10 9 21 6 23 -2 3 -7 -2 -11 -11z"/>
<path d="M1880 5208 l0 -66 83 -8 c45 -4 142 -8 214 -8 l133 -1 0 68 0 67
-138 0 c-77 0 -173 3 -215 6 l-77 7 0 -65z"/>
<path d="M2950 5204 l0 -67 45 6 c26 2 48 6 50 8 5 6 7 39 6 82 l-1 37 -50 0
-50 0 0 -66z"/>
<path d="M1831 1444 c0 -11 3 -14 6 -6 3 7 2 16 -1 19 -3 4 -6 -2 -5 -13z"/>
<path d="M8136 1122 c-3 -6 -4 -23 0 -38 4 -15 7 -36 8 -47 1 -11 7 -22 14
-25 9 -3 11 7 6 40 -9 59 -19 84 -28 70z"/>
<path d="M4848 723 c6 -2 18 -2 25 0 6 3 1 5 -13 5 -14 0 -19 -2 -12 -5z"/>
<path d="M4953 723 c31 -2 83 -2 115 0 31 2 5 3 -58 3 -63 0 -89 -1 -57 -3z"/>
<path d="M5150 721 c25 -7 511 -3 519 5 2 2 -119 4 -270 3 -151 -1 -263 -4
-249 -8z"/>
<path d="M5738 723 c6 -2 18 -2 25 0 6 3 1 5 -13 5 -14 0 -19 -2 -12 -5z"/>
</g>
</svg>
